<svg width="16" height="16" viewBox="0 0 16 16" fill="none" xmlns="http://www.w3.org/2000/svg">
<path d="M3.79542 7.99998L1.53256 13.8188C1.37507 14.2237 1.76997 14.611 2.16061 14.4734L2.22217 14.4472L14.2222 8.44719C14.5677 8.27445 14.5893 7.80143 14.287 7.59115L14.2222 7.55277L2.22218 1.55276C1.83352 1.35844 1.41132 1.71576 1.51221 2.11748L1.53257 2.1812L3.79542 7.99998L1.53256 13.8188L3.79542 7.99998ZM2.93441 12.973L4.67374 8.50038L9.09212 8.49998C9.34525 8.49998 9.55444 8.31188 9.58755 8.06783L9.59212 7.99998C9.59212 7.74685 9.40401 7.53765 9.15996 7.50454L9.09212 7.49998L4.67374 7.50038L2.93441 3.02692L12.8805 7.99998L2.93441 12.973Z" fill="white"/>
</svg>
