<svg width="24" height="25" viewBox="0 0 24 25" fill="none" xmlns="http://www.w3.org/2000/svg">
<path fill-rule="evenodd" clip-rule="evenodd" d="M5.24778 2L5.25 2H15.375L15.3771 2C16.2709 2.00255 17.1273 2.35872 17.7593 2.9907C18.3913 3.62268 18.7475 4.47911 18.75 5.37287C18.75 5.37879 18.75 5.3847 18.7498 5.39062L18.7423 5.75H19.0781C20.968 5.75 22.5 7.28203 22.5 9.17188V19.5781C22.5 21.468 20.968 23 19.0781 23H8.67188C6.78203 23 5.25 21.468 5.25 19.5781V19.25H4.875L4.87287 19.25C3.97911 19.2475 3.12268 18.8913 2.4907 18.2593C1.85872 17.6273 1.50255 16.7709 1.5 15.8771L1.5 15.875V5.75L1.5 5.74778C1.50294 4.75471 1.89874 3.80315 2.60094 3.10094C3.30315 2.39874 4.25471 2.00294 5.24778 2ZM6.75 19.5781C6.75 20.6395 7.61045 21.5 8.67188 21.5H19.0781C20.1395 21.5 21 20.6395 21 19.5781V9.17188C21 8.11045 20.1395 7.25 19.0781 7.25H17.9791C17.9776 7.25 17.9761 7.25 17.9746 7.25H8.67188C7.61045 7.25 6.75 8.11045 6.75 9.17188V19.5781ZM17.242 5.75H8.67188C6.78203 5.75 5.25 7.28203 5.25 9.17188V17.75H4.87621C4.37913 17.7483 3.90287 17.5501 3.55136 17.1986C3.19987 16.8471 3.00167 16.3709 3 15.8738V5.75119C3.00203 5.15478 3.23986 4.58335 3.66161 4.16161C4.08335 3.73986 4.65478 3.50203 5.25119 3.5H15.3738C15.8709 3.50167 16.3471 3.69987 16.6986 4.05136C17.0484 4.40117 17.2464 4.87454 17.25 5.36902L17.242 5.75Z" fill="white"/>
</svg>
