<svg width="14" height="14" viewBox="0 0 14 14" fill="none" xmlns="http://www.w3.org/2000/svg">
<path d="M2.79591 6.99998L0.533053 12.8188C0.37556 13.2237 0.770455 13.611 1.1611 13.4734L1.22266 13.4472L13.2227 7.44719C13.5682 7.27445 13.5897 6.80143 13.2874 6.59115L13.2227 6.55277L1.22266 0.552763C0.83401 0.358437 0.411808 0.715761 0.512697 1.11748L0.533055 1.1812L2.79591 6.99998L0.533053 12.8188L2.79591 6.99998ZM1.9349 11.973L3.67423 7.50038L8.0926 7.49998C8.34574 7.49998 8.55493 7.31188 8.58804 7.06783L8.5926 6.99998C8.5926 6.74685 8.4045 6.53765 8.16045 6.50454L8.0926 6.49998L3.67423 6.50038L1.9349 2.02692L11.881 6.99998L1.9349 11.973Z" fill="white"/>
</svg>
